<svg xmlns="http://www.w3.org/2000/svg" version="1.1" xmlns:xlink="http://www.w3.org/1999/xlink" xmlns:svgjs="http://svgjs.dev/svgjs" viewBox="0 0 800 800"><defs><linearGradient x1="50%" y1="0%" x2="50%" y2="100%" id="uundulate-grad"><stop stop-color="hsl(272, 99%, 54%)" stop-opacity="1" offset="45%"></stop><stop stop-color="hsl(316, 76%, 50%)" stop-opacity="1" offset="100%"></stop></linearGradient></defs><g stroke-width="2" stroke="url(#uundulate-grad)" fill="none"><path d="M674.3489607724688 361.08636077681444C682.2861322980061 437.6644829349507 617.2198610853663 567.9512378985287 502.81334054478555 583.8044199897959C388.40682000420475 599.657602081063 133.1348337032178 513.7597569730324 125.19766217768085 437.18163481489614C117.26049065214391 360.6035126567598 350.3083966816266 232.08261572200826 464.7149172222074 216.22943363074114C579.1214377627882 200.37625153947397 666.4117892469316 284.50823861867826 674.3489607724688 361.08636077681444C682.2861322980061 437.6644829349507 617.2198610853663 567.9512378985287 502.81334054478555 583.8044199897959 "></path><path d="M661.8785520774667 362.8551729634064C669.454943079116 435.9524713870819 607.346229648869 560.3171011250427 498.1400054964963 575.4496840303432C388.93378134412376 590.5822669356436 145.26506714772705 508.5888693325235 137.68867614607814 435.49157090884796C130.11228514442928 362.3942724851724 352.56710453620815 239.71523450200044 461.7733286885807 224.58265159669998C570.9795528409534 209.4500686913995 654.3021610758175 289.7578745397309 661.8785520774667 362.8551729634064C669.454943079116 435.9524713870819 607.346229648869 560.3171011250427 498.1400054964963 575.4496840303432 "></path><path d="M649.4081433824645 364.6239546324201C656.6237538602256 434.2404293216349 597.4725982123714 552.6829338339785 493.46667044820697 567.0949175533123C389.46074268404266 581.506901272646 157.39530059223637 503.41795117443644 150.17969011447548 433.80147648522154C142.96407963671464 364.1850017960068 354.8258123907898 247.3478227644145 458.8317401549541 232.93583904508068C562.8376679191185 218.52385532574692 642.1925329047033 295.00747994320534 649.4081433824645 364.6239546324201C656.6237538602256 434.2404293216349 597.4725982123714 552.6829338339785 493.46667044820697 567.0949175533123 "></path><path d="M636.9377346874624 366.3927820778011C643.7925646413355 432.5284330325551 587.598966775874 545.0488123192815 488.79333539991785 558.7401968526486C389.98770402396167 572.4315813860158 169.52553403674563 498.2470787927165 162.67070408287282 432.11142783796254C155.815874129 365.9757768832084 357.0845202453713 254.9804568031957 455.8901516213275 241.28907226982864C554.6957829972837 227.59768773646152 630.0829047335893 300.25713112304703 636.9377346874624 366.3927820778011C643.7925646413355 432.5284330325551 587.598966775874 545.0488123192815 488.79333539991785 558.7401968526486 "></path><path d="M624.4673259924602 368.1615790056039C630.9613754224454 430.81640622589725 577.7253353393764 537.4146602870064 484.1200003516285 550.3854456344068C390.51466536388057 563.3562309818072 181.65576748125488 493.0761758934185 175.1617180512701 430.4213486731253C168.66766862128537 367.7665214528319 359.34322809995297 262.6130603243988 452.9485630877009 249.6422749769984C546.5538980754488 236.671489629598 617.9732765624752 305.5067517853106 624.4673259924602 368.1615790056039C630.9613754224454 430.81640622589725 577.7253353393764 537.4146602870064 484.1200003516285 550.3854456344068 "></path><path d="M611.9969172974581 369.9303759334067C618.1301862035552 429.1043794192393 567.8517039028791 529.7805082547313 479.4466653033393 542.030694416165C391.0416267037996 554.2808805775987 193.7860009257642 487.90527299412054 187.65273201966744 428.73126950828794C181.51946311357068 369.5572660224554 361.6019359545346 270.24566384560194 450.0069745540743 257.9954776841682C538.412013153614 245.74529152273448 605.863648391361 310.75637244757417 611.9969172974581 369.9303759334067C618.1301862035552 429.1043794192393 567.8517039028791 529.7805082547313 479.4466653033393 542.030694416165 "></path><path d="M599.5265238612451 371.69917286120955C605.299012243454 427.39235261258136 557.9780877251706 522.1463562224562 474.7733455138391 533.6759431979233C391.56860330250754 545.2055301733903 205.91624962906252 482.73437009482257 200.14376124685384 427.0411903434507C194.3712728646451 371.3480105920789 363.86065906790526 277.878267366805 447.06540127923677 266.348680391338C530.2701434905682 254.81909341587095 593.7540354790361 316.00599310983773 599.5265238612451 371.69917286120955C605.299012243454 427.39235261258136 557.9780877251706 522.1463562224562 474.7733455138391 533.6759431979233 "></path><path d="M587.0560999074539 373.4679697890124C592.4678077657748 425.68032580592353 548.1044410298841 514.5122041901811 470.0999952067607 525.3211919796814C392.0955493836375 536.1301797691817 218.04646781478272 477.5634671955245 212.63475995646206 425.35111117861345C207.2230520981414 373.13875516170236 366.1193516636978 285.5108708880081 444.1237974868211 274.7018830985078C522.1282433099443 263.8928953090075 581.644392049133 321.2556137721013 587.0560999074539 373.4679697890124C592.4678077657748 425.68032580592353 548.1044410298841 514.5122041901811 470.0999952067607 525.3211919796814 "></path><path d="M574.585736988819 375.2367972343933C579.6366643232518 423.9683295168436 538.2308553697537 506.87808267548417 465.42670593483865 516.9664712790178C392.62255649992363 527.0548598825515 230.17674703565922 472.39259481380464 225.1258197012266 423.66106253135433C220.07489236679396 374.929530248904 368.3781052946466 293.1435049267894 441.1822547295617 283.05511632325573C513.9864041644767 272.9667277197221 569.5348096543861 326.505264951943 574.585736988819 375.2367972343933C579.6366643232518 423.9683295168436 538.2308553697537 506.87808267548417 465.42670593483865 516.9664712790178 "></path><path d="M562.1153130350277 377.005563644618C566.8054598455725 422.25627219260764 528.3572086744673 499.24390012563094 460.75335562776036 508.61168954319794C393.1495025810535 517.9794789607648 242.30696522137941 467.22166139692854 237.61681841083487 421.97095284893896C232.92667160029026 376.7202443009494 370.63679789043914 300.7760779304143 438.24065093714603 291.4082885128474C505.84450398385286 282.04049909528044 557.425166224483 331.75485509662843 562.1153130350277 377.005563644618C566.8054598455725 422.25627219260764 528.3572086744673 499.24390012563094 460.75335562776036 508.61168954319794 "></path><path d="M549.6449195988147 378.77439108999897C553.9742858854713 420.5442759035278 518.4835924967588 491.609778610934 456.0800358382602 500.2569688425342C393.67647917976154 508.90415907413444 254.43721392467774 462.0507890152087 250.1078476380212 420.28090420167985C245.7784813513647 378.51101938815094 372.8955210038098 308.40871196919556 435.2990776623085 299.7615217375953C497.7026343208071 291.11433150599504 545.3155533121579 337.0045062764701 549.6449195988147 378.77439108999897C553.9742858854713 420.5442759035278 518.4835924967588 491.609778610934 456.0800358382602 500.2569688425342 "></path><path d="M537.1744651274453 380.54318801780175C541.143050890214 418.8322490968699 508.6099152838941 483.9756265786589 451.40665501360377 491.90221762429246C394.2033947433133 499.82880866992605 266.5674015928198 456.8798861159107 262.59881583005136 418.5908250368426C258.63023006728287 380.3017639577744 375.15418308202425 316.0413154903987 432.35744335231465 308.1147244447651C489.56070362260505 300.1881333991315 533.2058793646768 342.25412693873363 537.1744651274453 380.54318801780175C541.143050890214 418.8322490968699 508.6099152838941 483.9756265786589 451.40665501360377 491.90221762429246 "></path><path d="M524.7040564324432 382.31200020439366C528.3118616713238 417.12023754900105 498.73628384739663 476.34148980517284 446.7333199653144 483.5474816648398C394.73035608323227 490.7534735245066 278.6976350373291 451.7089984754018 275.0898297984487 416.90076113079436C271.48202455956823 382.09252378618703 377.41289093660583 323.6739342703908 429.415854818688 316.46794241072394C481.4188187007702 309.26195055105705 521.0962511935626 347.50376285978626 524.7040564324432 382.31200020439366C528.3118616713238 417.12023754900105 498.73628384739663 476.34148980517284 446.7333199653144 483.5474816648398 "></path><path d="M512.2336477374411 384.08078187340743C515.4806724524336 415.4081954835541 488.86265241089916 468.7073225141087 442.0599849170252 475.19271518780886C395.2573174231512 481.67810786150903 290.8278684818384 446.5380803173147 287.580843766846 415.2106667071681C284.3338190518536 383.88325309702145 379.6715987911874 331.3065225328049 426.4742662850614 324.8211298591047C473.27693377893536 318.33573718540447 508.9866230224486 352.75336826326077 512.2336477374411 384.08078187340743C515.4806724524336 415.4081954835541 488.86265241089916 468.7073225141087 442.0599849170252 475.19271518780886 "></path><path d="M499.7632695600171 385.8495940599993C502.6495137511215 413.6961839356852 478.9890514919798 461.07318574062265 437.3866803863141 466.8379792283562C395.7843092806483 472.6027727160897 302.95813244392576 441.3671926768058 300.07188825282145 413.5206028011199C297.1856440617171 385.674012925434 381.9303371633472 338.93914131279706 423.5327082690129 333.17434782506353C465.13507937467864 327.40955433733 496.87702536891265 358.0030041843134 499.7632695600171 385.8495940599993C502.6495137511215 413.6961839356852 478.9890514919798 461.07318574062265 437.3866803863141 466.8379792283562 "></path><path d="M487.292860865015 387.6183909878021C489.8183245322314 411.98415712902727 469.11542005548233 453.43903370834755 432.7133453380248 458.4832280101144C396.31127062056726 463.5274223118812 315.0883658884351 436.1962897775078 312.56290222121874 411.83052363628263C310.03743855400245 387.4647574950575 384.1890450179288 346.5717448340001 420.5911197353863 341.5275505322333C456.9931944528438 336.4833562304665 484.7673971977986 363.25262484657696 487.292860865015 387.6183909878021C489.8183245322314 411.98415712902727 469.11542005548233 453.43903370834755 432.7133453380248 458.4832280101144 "></path><path d="M474.8224521700128 389.38718791560495C476.9871353133411 410.2721303223694 459.24178861898486 445.80488167607245 428.04001028973556 450.1284767918726C396.83823196048627 454.4520719076727 327.21859933294434 431.0253868782098 325.0539161896161 410.1404444714454C322.8892330462878 389.25550206468097 386.44775287251036 354.20434835520325 417.6495312017597 349.88075323940313C448.851309531009 345.55715812360296 472.65776902668443 368.50224550884053 474.8224521700128 389.38718791560495C476.9871353133411 410.2721303223694 459.24178861898486 445.80488167607245 428.04001028973556 450.1284767918726 "></path><path d="M462.3520282162216 391.1560153609859C464.1559308356619 408.5601340332896 449.3681419236983 438.1707601613755 423.3666599826572 441.77375609120895C397.36517804161616 445.37675202104236 339.34881751866453 425.85451449648997 337.54491489922435 408.4503958241863C335.7410122797841 391.0462771518826 388.70644546830295 361.8369823939845 414.707927409344 358.23398646415103C440.7094093503851 354.6309905343176 460.5481255967813 373.7518966886822 462.3520282162216 391.1560153609859C464.1559308356619 408.5601340332896 449.3681419236983 438.1707601613755 423.3666599826572 441.77375609120895 "></path><path d="M449.88163478000854 392.92479702999964C451.32475687556075 406.8480919678426 439.4945257459899 430.5365928703113 418.69334019315704 433.4189896141781C397.8921546403242 436.30138635804485 351.4790662219629 420.6835963384029 350.0359441264107 406.7603014005599C348.59282203085854 392.837006462717 390.9651685816736 369.4695706563985 411.76635413450646 366.58717391253174C432.5675396873393 363.70477716866503 448.4385126844563 379.00150209215667 449.88163478000854 392.92479702999964C451.32475687556075 406.8480919678426 439.4945257459899 430.5365928703113 418.69334019315704 433.4189896141781 "></path><path d="M437.41122608500643 394.6935939578025C438.49356765667056 405.13606516118466 429.6208943094924 422.9024408380362 414.0200051448678 425.0642383959363C398.41911598024313 427.22603595383634 363.60929966647217 415.5126934391049 362.52695809480804 405.07022223572267C361.4446165231439 394.6277510323405 393.2238764362552 377.1021741776016 408.82476560087986 374.94037661970157C424.4256547655045 372.7785790618015 436.32888451334225 384.25112275442024 437.41122608500643 394.6935939578025C438.49356765667056 405.13606516118466 429.6208943094924 422.9024408380362 414.0200051448678 425.0642383959363 "></path><path d="M424.94081739000427 396.4623908856053C425.6623784377804 403.4240383545268 419.74726287299495 415.26828880576113 409.3466700965785 416.70948717769454C398.9460773201621 418.1506855496279 375.7395331109814 410.34179053980694 375.0179720632054 403.3801430708854C374.29641101542927 396.41849560196397 395.48258429083677 384.73477769880475 405.8831770672532 383.29357932687134C416.2837698436697 381.852380954938 424.21925634222816 389.5007434166838 424.94081739000427 396.4623908856053C425.6623784377804 403.4240383545268 419.74726287299495 415.26828880576113 409.3466700965785 416.70948717769454 "></path><path d="M412.4704086950021 398.23120307219716C412.8311892188902 401.71202680665795 409.8736314364975 407.6341520322751 404.67333504828923 408.3547512182418C399.47303866008104 409.07535040420845 387.86976655549074 405.17090289929797 387.50898603160266 401.69007916483724C387.14820550771464 398.2092554303765 397.7412921454184 392.3673964787969 402.9415885336266 391.64679729283023C408.14188492183484 390.9261981068635 412.1096281711141 394.75037933773643 412.4704086950021 398.23120307219716C412.8311892188902 401.71202680665795 409.8736314364975 407.6341520322751 404.67333504828923 408.3547512182418 "></path></g></svg>