<svg xmlns="http://www.w3.org/2000/svg" version="1.1" xmlns:xlink="http://www.w3.org/1999/xlink" xmlns:svgjs="http://svgjs.dev/svgjs" viewBox="0 0 1422 800"><circle r="17" cx="759" cy="565" fill="hsl(128, 34%, 86%)" opacity="0.80"></circle><circle r="11.5" cx="812" cy="155" fill="hsl(99, 34%, 86%)" opacity="0.72"></circle><circle r="14.5" cx="1309" cy="443" fill="hsl(217, 34%, 86%)" opacity="0.97"></circle><circle r="7" cx="671" cy="106" fill="hsl(66, 34%, 86%)" opacity="0.85"></circle><circle r="13.5" cx="547" cy="321" fill="hsl(169, 34%, 86%)" opacity="0.68"></circle><circle r="13.5" cx="1165" cy="438" fill="hsl(151, 34%, 86%)" opacity="0.98"></circle><circle r="8" cx="1175" cy="337" fill="hsl(151, 34%, 86%)" opacity="0.78"></circle><circle r="12" cx="314" cy="237" fill="hsl(213, 34%, 86%)" opacity="0.92"></circle><circle r="7.5" cx="1054" cy="618" fill="hsl(123, 34%, 86%)" opacity="0.16"></circle><circle r="10.5" cx="685" cy="299" fill="hsl(140, 34%, 86%)" opacity="0.38"></circle><circle r="9.5" cx="28" cy="19" fill="hsl(155, 34%, 86%)" opacity="0.18"></circle><circle r="17" cx="57" cy="599" fill="hsl(247, 34%, 86%)" opacity="0.66"></circle><circle r="16.5" cx="1336" cy="719" fill="hsl(242, 34%, 86%)" opacity="0.83"></circle><circle r="9.5" cx="1011" cy="625" fill="hsl(119, 34%, 86%)" opacity="0.66"></circle><circle r="12" cx="912" cy="113" fill="hsl(110, 34%, 86%)" opacity="0.53"></circle><circle r="9.5" cx="580" cy="675" fill="hsl(158, 34%, 86%)" opacity="0.71"></circle><circle r="8" cx="1068" cy="680" fill="hsl(127, 34%, 86%)" opacity="0.76"></circle><circle r="11" cx="764" cy="175" fill="hsl(112, 34%, 86%)" opacity="0.68"></circle><circle r="14.5" cx="516" cy="446" fill="hsl(175, 34%, 86%)" opacity="0.99"></circle><circle r="11.5" cx="1391" cy="672" fill="hsl(264, 34%, 86%)" opacity="0.53"></circle><circle r="16" cx="653" cy="478" fill="hsl(144, 34%, 86%)" opacity="0.43"></circle><circle r="12" cx="226" cy="38" fill="hsl(163, 34%, 86%)" opacity="0.31"></circle><circle r="14" cx="380" cy="287" fill="hsl(203, 34%, 86%)" opacity="0.25"></circle><circle r="18.5" cx="106" cy="425" fill="hsl(243, 34%, 86%)" opacity="0.48"></circle><circle r="10" cx="118" cy="44" fill="hsl(169, 34%, 86%)" opacity="1.00"></circle><circle r="9" cx="829" cy="766" fill="hsl(123, 34%, 86%)" opacity="0.32"></circle><circle r="14.5" cx="1069" cy="416" fill="hsl(127, 34%, 86%)" opacity="0.85"></circle><circle r="11.5" cx="1251" cy="647" fill="hsl(192, 34%, 86%)" opacity="0.27"></circle><circle r="12" cx="600" cy="173" fill="hsl(138, 34%, 86%)" opacity="0.72"></circle><circle r="11" cx="538" cy="575" fill="hsl(169, 34%, 86%)" opacity="0.38"></circle><circle r="12" cx="1084" cy="535" fill="hsl(127, 34%, 86%)" opacity="0.41"></circle><circle r="20" cx="1333" cy="529" fill="hsl(229, 34%, 86%)" opacity="0.39"></circle><circle r="10.5" cx="789" cy="223" fill="hsl(126, 34%, 86%)" opacity="0.49"></circle><circle r="11" cx="62" cy="61" fill="hsl(185, 34%, 86%)" opacity="0.37"></circle><circle r="11.5" cx="296" cy="312" fill="hsl(216, 34%, 86%)" opacity="0.55"></circle><circle r="12" cx="1299" cy="400" fill="hsl(217, 34%, 86%)" opacity="0.89"></circle><circle r="18" cx="265" cy="502" fill="hsl(221, 34%, 86%)" opacity="0.71"></circle><circle r="14.5" cx="1304" cy="350" fill="hsl(217, 34%, 86%)" opacity="0.46"></circle><circle r="11.5" cx="1070" cy="277" fill="hsl(127, 34%, 86%)" opacity="0.95"></circle><circle r="16.5" cx="452" cy="324" fill="hsl(190, 34%, 86%)" opacity="0.32"></circle><circle r="16" cx="1391" cy="583" fill="hsl(264, 34%, 86%)" opacity="0.46"></circle><circle r="10.5" cx="539" cy="211" fill="hsl(169, 34%, 86%)" opacity="0.41"></circle><circle r="6.5" cx="703" cy="86" fill="hsl(51, 34%, 86%)" opacity="0.71"></circle><circle r="13.5" cx="1225" cy="775" fill="hsl(181, 34%, 86%)" opacity="0.69"></circle><circle r="11.5" cx="741" cy="769" fill="hsl(130, 34%, 86%)" opacity="0.91"></circle><circle r="11" cx="764" cy="369" fill="hsl(128, 34%, 86%)" opacity="0.87"></circle><circle r="7" cx="709" cy="648" fill="hsl(136, 34%, 86%)" opacity="0.55"></circle><circle r="8" cx="584" cy="639" fill="hsl(158, 34%, 86%)" opacity="0.94"></circle><circle r="13" cx="320" cy="352" fill="hsl(213, 34%, 86%)" opacity="0.10"></circle><circle r="17" cx="1228" cy="452" fill="hsl(181, 34%, 86%)" opacity="0.88"></circle><circle r="14" cx="372" cy="534" fill="hsl(207, 34%, 86%)" opacity="0.75"></circle><circle r="11" cx="48" cy="689" fill="hsl(247, 34%, 86%)" opacity="0.33"></circle><circle r="11.5" cx="645" cy="283" fill="hsl(144, 34%, 86%)" opacity="0.69"></circle><circle r="11.5" cx="280" cy="259" fill="hsl(218, 34%, 86%)" opacity="0.21"></circle><circle r="13.5" cx="1125" cy="326" fill="hsl(137, 34%, 86%)" opacity="0.74"></circle><circle r="11.5" cx="1343" cy="640" fill="hsl(242, 34%, 86%)" opacity="0.70"></circle><circle r="8.5" cx="876" cy="760" fill="hsl(120, 34%, 86%)" opacity="0.98"></circle><circle r="10.5" cx="1128" cy="22" fill="hsl(187, 34%, 86%)" opacity="0.20"></circle><circle r="15" cx="1381" cy="775" fill="hsl(264, 34%, 86%)" opacity="0.98"></circle><circle r="16" cx="865" cy="365" fill="hsl(122, 34%, 86%)" opacity="0.67"></circle><circle r="13.5" cx="152" cy="230" fill="hsl(237, 34%, 86%)" opacity="0.49"></circle><circle r="14.5" cx="403" cy="223" fill="hsl(199, 34%, 86%)" opacity="0.48"></circle><circle r="15.5" cx="358" cy="44" fill="hsl(129, 34%, 86%)" opacity="0.11"></circle><circle r="10" cx="1002" cy="224" fill="hsl(119, 34%, 86%)" opacity="0.14"></circle><circle r="11" cx="1124" cy="112" fill="hsl(159, 34%, 86%)" opacity="0.15"></circle><circle r="14.5" cx="1293" cy="303" fill="hsl(217, 34%, 86%)" opacity="0.79"></circle><circle r="14.5" cx="424" cy="574" fill="hsl(195, 34%, 86%)" opacity="0.79"></circle><circle r="11" cx="480" cy="687" fill="hsl(185, 34%, 86%)" opacity="0.51"></circle><circle r="20.5" cx="1392" cy="131" fill="hsl(271, 34%, 86%)" opacity="0.55"></circle><circle r="8.5" cx="392" cy="764" fill="hsl(203, 34%, 86%)" opacity="0.14"></circle><circle r="18.5" cx="172" cy="175" fill="hsl(227, 34%, 86%)" opacity="0.94"></circle><circle r="6" cx="629" cy="22" fill="hsl(22, 34%, 86%)" opacity="0.88"></circle><circle r="12.5" cx="458" cy="418" fill="hsl(190, 34%, 86%)" opacity="0.57"></circle><circle r="13.5" cx="908" cy="684" fill="hsl(119, 34%, 86%)" opacity="0.38"></circle><circle r="14" cx="491" cy="572" fill="hsl(180, 34%, 86%)" opacity="0.40"></circle><circle r="17.5" cx="121" cy="715" fill="hsl(240, 34%, 86%)" opacity="0.80"></circle><circle r="10" cx="958" cy="30" fill="hsl(136, 34%, 86%)" opacity="0.16"></circle><circle r="16" cx="499" cy="160" fill="hsl(163, 34%, 86%)" opacity="0.35"></circle><circle r="14" cx="152" cy="103" fill="hsl(204, 34%, 86%)" opacity="0.12"></circle><circle r="17" cx="365" cy="119" fill="hsl(175, 34%, 86%)" opacity="0.23"></circle><circle r="13.5" cx="1297" cy="672" fill="hsl(217, 34%, 86%)" opacity="0.91"></circle><circle r="19.5" cx="1356" cy="288" fill="hsl(253, 34%, 86%)" opacity="0.60"></circle><circle r="14.5" cx="879" cy="456" fill="hsl(120, 34%, 86%)" opacity="0.97"></circle><circle r="11.5" cx="810" cy="92" fill="hsl(80, 34%, 86%)" opacity="0.22"></circle><circle r="10.5" cx="914" cy="25" fill="hsl(118, 34%, 86%)" opacity="0.21"></circle><circle r="12.5" cx="208" cy="330" fill="hsl(227, 34%, 86%)" opacity="0.16"></circle><circle r="12.5" cx="1046" cy="86" fill="hsl(152, 34%, 86%)" opacity="0.97"></circle><circle r="11.5" cx="1283" cy="28" fill="hsl(226, 34%, 86%)" opacity="0.84"></circle><circle r="13.5" cx="23" cy="319" fill="hsl(248, 34%, 86%)" opacity="0.20"></circle><circle r="10.5" cx="508" cy="637" fill="hsl(180, 34%, 86%)" opacity="0.18"></circle><circle r="14" cx="1245" cy="51" fill="hsl(217, 34%, 86%)" opacity="0.70"></circle><circle r="17.5" cx="120" cy="580" fill="hsl(240, 34%, 86%)" opacity="0.54"></circle><circle r="14.5" cx="187" cy="394" fill="hsl(230, 34%, 86%)" opacity="0.39"></circle><circle r="6.5" cx="734" cy="156" fill="hsl(96, 34%, 86%)" opacity="0.16"></circle><circle r="9.5" cx="157" cy="60" fill="hsl(179, 34%, 86%)" opacity="0.15"></circle><circle r="11" cx="1221" cy="284" fill="hsl(170, 34%, 86%)" opacity="0.77"></circle><circle r="15" cx="333" cy="416" fill="hsl(213, 34%, 86%)" opacity="0.71"></circle><circle r="13" cx="1242" cy="339" fill="hsl(181, 34%, 86%)" opacity="0.82"></circle><circle r="17" cx="392" cy="396" fill="hsl(203, 34%, 86%)" opacity="0.31"></circle><circle r="19" cx="1278" cy="499" fill="hsl(204, 34%, 86%)" opacity="0.91"></circle><circle r="13" cx="226" cy="267" fill="hsl(224, 34%, 86%)" opacity="0.28"></circle><circle r="11" cx="499" cy="217" fill="hsl(180, 34%, 86%)" opacity="0.69"></circle><circle r="12.5" cx="640" cy="210" fill="hsl(148, 34%, 86%)" opacity="0.67"></circle><circle r="16" cx="136" cy="774" fill="hsl(237, 34%, 86%)" opacity="0.29"></circle><circle r="11.5" cx="639" cy="139" fill="hsl(108, 34%, 86%)" opacity="0.56"></circle><circle r="12" cx="1095" cy="757" fill="hsl(131, 34%, 86%)" opacity="0.34"></circle><circle r="13.5" cx="1247" cy="387" fill="hsl(192, 34%, 86%)" opacity="0.19"></circle><circle r="12.5" cx="521" cy="736" fill="hsl(175, 34%, 86%)" opacity="0.83"></circle><circle r="17.5" cx="315" cy="527" fill="hsl(213, 34%, 86%)" opacity="0.88"></circle><circle r="15.5" cx="1256" cy="211" fill="hsl(192, 34%, 86%)" opacity="0.53"></circle><circle r="10" cx="502" cy="781" fill="hsl(180, 34%, 86%)" opacity="0.29"></circle><circle r="7" cx="810" cy="728" fill="hsl(124, 34%, 86%)" opacity="0.38"></circle><circle r="13.5" cx="1276" cy="752" fill="hsl(204, 34%, 86%)" opacity="0.50"></circle><circle r="13.5" cx="461" cy="524" fill="hsl(190, 34%, 86%)" opacity="0.83"></circle><circle r="9" cx="822" cy="689" fill="hsl(124, 34%, 86%)" opacity="0.23"></circle><circle r="11.5" cx="572" cy="744" fill="hsl(164, 34%, 86%)" opacity="0.90"></circle><circle r="15.5" cx="25" cy="379" fill="hsl(248, 34%, 86%)" opacity="0.25"></circle><circle r="13" cx="246" cy="85" fill="hsl(180, 34%, 86%)" opacity="0.15"></circle><circle r="15" cx="1236" cy="137" fill="hsl(194, 34%, 86%)" opacity="0.89"></circle><circle r="9.5" cx="1144" cy="780" fill="hsl(143, 34%, 86%)" opacity="0.47"></circle><circle r="15" cx="1287" cy="581" fill="hsl(204, 34%, 86%)" opacity="0.84"></circle><circle r="9" cx="711" cy="683" fill="hsl(133, 34%, 86%)" opacity="0.40"></circle><circle r="8.5" cx="910" cy="780" fill="hsl(119, 34%, 86%)" opacity="0.60"></circle><circle r="20" cx="249" cy="567" fill="hsl(221, 34%, 86%)" opacity="0.57"></circle><circle r="15.5" cx="1202" cy="84" fill="hsl(198, 34%, 86%)" opacity="0.90"></circle><circle r="26" cx="200" cy="714" fill="hsl(227, 34%, 86%)" opacity="0.98"></circle><circle r="11.5" cx="620" cy="726" fill="hsl(153, 34%, 86%)" opacity="0.45"></circle><circle r="11.5" cx="1096" cy="79" fill="hsl(164, 34%, 86%)" opacity="0.98"></circle><circle r="25" cx="1385" cy="225" fill="hsl(264, 34%, 86%)" opacity="0.76"></circle><circle r="7.5" cx="534" cy="614" fill="hsl(169, 34%, 86%)" opacity="0.77"></circle><circle r="18.5" cx="379" cy="636" fill="hsl(203, 34%, 86%)" opacity="0.55"></circle><circle r="4.5" cx="840" cy="11" fill="hsl(79, 34%, 86%)" opacity="0.47"></circle><circle r="7.5" cx="702" cy="24" fill="hsl(32, 34%, 86%)" opacity="0.53"></circle><circle r="17" cx="92" cy="319" fill="hsl(243, 34%, 86%)" opacity="0.81"></circle><circle r="9" cx="790" cy="779" fill="hsl(126, 34%, 86%)" opacity="0.90"></circle><circle r="11" cx="474" cy="35" fill="hsl(78, 34%, 86%)" opacity="0.25"></circle><circle r="20" cx="53" cy="526" fill="hsl(247, 34%, 86%)" opacity="0.72"></circle><circle r="17.5" cx="854" cy="599" fill="hsl(122, 34%, 86%)" opacity="0.27"></circle><circle r="14" cx="1255" cy="705" fill="hsl(192, 34%, 86%)" opacity="0.34"></circle><circle r="15" cx="949" cy="201" fill="hsl(118, 34%, 86%)" opacity="0.84"></circle><circle r="19" cx="36" cy="269" fill="hsl(248, 34%, 86%)" opacity="0.30"></circle><circle r="18.5" cx="408" cy="694" fill="hsl(199, 34%, 86%)" opacity="0.89"></circle><circle r="7" cx="1239" cy="11" fill="hsl(212, 34%, 86%)" opacity="0.51"></circle><circle r="12.5" cx="441" cy="761" fill="hsl(195, 34%, 86%)" opacity="0.73"></circle><circle r="14.5" cx="395" cy="170" fill="hsl(192, 34%, 86%)" opacity="0.27"></circle><circle r="7.5" cx="662" cy="672" fill="hsl(144, 34%, 86%)" opacity="0.12"></circle><circle r="10.5" cx="972" cy="592" fill="hsl(118, 34%, 86%)" opacity="0.23"></circle><circle r="13" cx="1066" cy="332" fill="hsl(123, 34%, 86%)" opacity="0.81"></circle><circle r="15" cx="711" cy="362" fill="hsl(136, 34%, 86%)" opacity="0.61"></circle><circle r="7.5" cx="652" cy="68" fill="hsl(52, 34%, 86%)" opacity="0.17"></circle><circle r="10.5" cx="1102" cy="693" fill="hsl(131, 34%, 86%)" opacity="0.78"></circle><circle r="9" cx="701" cy="615" fill="hsl(136, 34%, 86%)" opacity="0.14"></circle><circle r="15" cx="361" cy="727" fill="hsl(207, 34%, 86%)" opacity="0.36"></circle><circle r="15.5" cx="18" cy="569" fill="hsl(249, 34%, 86%)" opacity="0.56"></circle><circle r="12.5" cx="1180" cy="744" fill="hsl(160, 34%, 86%)" opacity="0.14"></circle><circle r="12" cx="686" cy="550" fill="hsl(140, 34%, 86%)" opacity="0.30"></circle><circle r="17" cx="938" cy="376" fill="hsl(118, 34%, 86%)" opacity="0.90"></circle><circle r="15" cx="807" cy="323" fill="hsl(124, 34%, 86%)" opacity="0.67"></circle><circle r="12" cx="1357" cy="26" fill="hsl(258, 34%, 86%)" opacity="0.18"></circle><circle r="18" cx="578" cy="456" fill="hsl(158, 34%, 86%)" opacity="0.64"></circle><circle r="12" cx="807" cy="639" fill="hsl(124, 34%, 86%)" opacity="0.23"></circle><circle r="15.5" cx="1337" cy="590" fill="hsl(242, 34%, 86%)" opacity="0.80"></circle><circle r="9" cx="746" cy="104" fill="hsl(68, 34%, 86%)" opacity="0.15"></circle><circle r="10" cx="596" cy="781" fill="hsl(158, 34%, 86%)" opacity="0.85"></circle><circle r="17.5" cx="1336" cy="110" fill="hsl(253, 34%, 86%)" opacity="0.72"></circle><circle r="11.5" cx="577" cy="550" fill="hsl(164, 34%, 86%)" opacity="0.50"></circle><circle r="14.5" cx="400" cy="458" fill="hsl(203, 34%, 86%)" opacity="0.44"></circle><circle r="9.5" cx="751" cy="42" fill="hsl(42, 34%, 86%)" opacity="0.69"></circle><circle r="13.5" cx="1041" cy="759" fill="hsl(121, 34%, 86%)" opacity="0.85"></circle><circle r="11.5" cx="1183" cy="250" fill="hsl(160, 34%, 86%)" opacity="0.93"></circle><circle r="12" cx="185" cy="258" fill="hsl(230, 34%, 86%)" opacity="0.43"></circle><circle r="13.5" cx="971" cy="299" fill="hsl(118, 34%, 86%)" opacity="0.81"></circle><circle r="13.5" cx="1392" cy="628" fill="hsl(264, 34%, 86%)" opacity="0.49"></circle><circle r="14.5" cx="431" cy="271" fill="hsl(195, 34%, 86%)" opacity="0.74"></circle><circle r="13" cx="283" cy="373" fill="hsl(218, 34%, 86%)" opacity="0.77"></circle><circle r="16" cx="444" cy="124" fill="hsl(144, 34%, 86%)" opacity="0.12"></circle><circle r="12.5" cx="302" cy="135" fill="hsl(200, 34%, 86%)" opacity="0.71"></circle><circle r="18.5" cx="1159" cy="646" fill="hsl(151, 34%, 86%)" opacity="0.40"></circle><circle r="13" cx="254" cy="301" fill="hsl(221, 34%, 86%)" opacity="0.35"></circle><circle r="14.5" cx="238" cy="360" fill="hsl(224, 34%, 86%)" opacity="0.71"></circle><circle r="19" cx="228" cy="207" fill="hsl(224, 34%, 86%)" opacity="0.56"></circle><circle r="7" cx="411" cy="788" fill="hsl(199, 34%, 86%)" opacity="0.99"></circle><circle r="8.5" cx="862" cy="186" fill="hsl(122, 34%, 86%)" opacity="0.26"></circle><circle r="9.5" cx="81" cy="19" fill="hsl(155, 34%, 86%)" opacity="0.44"></circle><circle r="14.5" cx="455" cy="210" fill="hsl(190, 34%, 86%)" opacity="0.11"></circle><circle r="8.5" cx="694" cy="149" fill="hsl(98, 34%, 86%)" opacity="0.88"></circle><circle r="11" cx="1031" cy="572" fill="hsl(121, 34%, 86%)" opacity="0.92"></circle><circle r="14" cx="264" cy="162" fill="hsl(215, 34%, 86%)" opacity="0.13"></circle><circle r="15.5" cx="56" cy="730" fill="hsl(247, 34%, 86%)" opacity="0.59"></circle><circle r="13.5" cx="355" cy="219" fill="hsl(210, 34%, 86%)" opacity="0.68"></circle><circle r="13" cx="730" cy="503" fill="hsl(133, 34%, 86%)" opacity="0.15"></circle><circle r="15.5" cx="1012" cy="375" fill="hsl(119, 34%, 86%)" opacity="0.13"></circle><circle r="8" cx="662" cy="640" fill="hsl(144, 34%, 86%)" opacity="0.18"></circle><circle r="11.5" cx="510" cy="349" fill="hsl(180, 34%, 86%)" opacity="0.15"></circle><circle r="12" cx="1404" cy="701" fill="hsl(274, 34%, 86%)" opacity="0.73"></circle><circle r="15.5" cx="302" cy="83" fill="hsl(171, 34%, 86%)" opacity="0.37"></circle><circle r="17.5" cx="1279" cy="110" fill="hsl(222, 34%, 86%)" opacity="0.93"></circle><circle r="7" cx="669" cy="587" fill="hsl(140, 34%, 86%)" opacity="0.78"></circle><circle r="14" cx="1398" cy="739" fill="hsl(264, 34%, 86%)" opacity="0.17"></circle><circle r="9" cx="664" cy="725" fill="hsl(144, 34%, 86%)" opacity="0.60"></circle><circle r="11" cx="1006" cy="114" fill="hsl(130, 34%, 86%)" opacity="0.44"></circle><circle r="13.5" cx="174" cy="447" fill="hsl(233, 34%, 86%)" opacity="0.36"></circle><circle r="16.5" cx="71" cy="376" fill="hsl(245, 34%, 86%)" opacity="0.79"></circle><circle r="12.5" cx="669" cy="773" fill="hsl(140, 34%, 86%)" opacity="0.32"></circle><circle r="11" cx="1053" cy="212" fill="hsl(123, 34%, 86%)" opacity="0.36"></circle><circle r="5" cx="1004" cy="10" fill="hsl(159, 34%, 86%)" opacity="0.69"></circle><circle r="20" cx="1196" cy="558" fill="hsl(160, 34%, 86%)" opacity="1.00"></circle><circle r="15" cx="516" cy="91" fill="hsl(102, 34%, 86%)" opacity="0.68"></circle><circle r="11" cx="1200" cy="384" fill="hsl(170, 34%, 86%)" opacity="0.32"></circle><circle r="12.5" cx="1404" cy="460" fill="hsl(274, 34%, 86%)" opacity="0.72"></circle><circle r="16" cx="932" cy="543" fill="hsl(118, 34%, 86%)" opacity="0.26"></circle><circle r="15" cx="1007" cy="459" fill="hsl(119, 34%, 86%)" opacity="0.24"></circle><circle r="12" cx="349" cy="779" fill="hsl(210, 34%, 86%)" opacity="0.46"></circle><circle r="9.5" cx="1316" cy="15" fill="hsl(241, 34%, 86%)" opacity="0.97"></circle><circle r="8" cx="1199" cy="316" fill="hsl(160, 34%, 86%)" opacity="0.30"></circle><circle r="15" cx="1091" cy="171" fill="hsl(139, 34%, 86%)" opacity="0.43"></circle><circle r="10.5" cx="1026" cy="157" fill="hsl(125, 34%, 86%)" opacity="0.35"></circle><circle r="13" cx="1273" cy="263" fill="hsl(204, 34%, 86%)" opacity="0.41"></circle><circle r="12.5" cx="333" cy="173" fill="hsl(205, 34%, 86%)" opacity="0.15"></circle><circle r="12" cx="590" cy="80" fill="hsl(64, 34%, 86%)" opacity="0.63"></circle><circle r="19.5" cx="1393" cy="526" fill="hsl(264, 34%, 86%)" opacity="0.95"></circle><circle r="11" cx="619" cy="641" fill="hsl(153, 34%, 86%)" opacity="0.22"></circle><circle r="13" cx="590" cy="273" fill="hsl(158, 34%, 86%)" opacity="0.21"></circle><circle r="15.5" cx="894" cy="288" fill="hsl(119, 34%, 86%)" opacity="0.23"></circle><circle r="8.5" cx="416" cy="20" fill="hsl(99, 34%, 86%)" opacity="0.83"></circle><circle r="9" cx="880" cy="146" fill="hsl(106, 34%, 86%)" opacity="0.77"></circle><circle r="11" cx="1158" cy="374" fill="hsl(151, 34%, 86%)" opacity="0.80"></circle><circle r="10.5" cx="150" cy="399" fill="hsl(237, 34%, 86%)" opacity="0.82"></circle><circle r="12" cx="46" cy="649" fill="hsl(247, 34%, 86%)" opacity="0.44"></circle><circle r="24.5" cx="42" cy="459" fill="hsl(248, 34%, 86%)" opacity="0.58"></circle><circle r="9" cx="868" cy="706" fill="hsl(120, 34%, 86%)" opacity="0.68"></circle><circle r="13.5" cx="1243" cy="602" fill="hsl(181, 34%, 86%)" opacity="0.47"></circle><circle r="14" cx="101" cy="662" fill="hsl(243, 34%, 86%)" opacity="0.61"></circle><circle r="10.5" cx="1156" cy="286" fill="hsl(151, 34%, 86%)" opacity="0.78"></circle><circle r="18.5" cx="27" cy="195" fill="hsl(248, 34%, 86%)" opacity="0.37"></circle><circle r="14.5" cx="615" cy="338" fill="hsl(153, 34%, 86%)" opacity="0.64"></circle><circle r="16" cx="284" cy="436" fill="hsl(218, 34%, 86%)" opacity="0.25"></circle><circle r="13" cx="726" cy="447" fill="hsl(133, 34%, 86%)" opacity="0.61"></circle><circle r="11.5" cx="1159" cy="137" fill="hsl(167, 34%, 86%)" opacity="0.76"></circle><circle r="16" cx="845" cy="524" fill="hsl(122, 34%, 86%)" opacity="0.41"></circle><circle r="17.5" cx="699" cy="217" fill="hsl(136, 34%, 86%)" opacity="0.22"></circle><circle r="12" cx="862" cy="234" fill="hsl(122, 34%, 86%)" opacity="0.83"></circle><circle r="10.5" cx="1342" cy="676" fill="hsl(242, 34%, 86%)" opacity="0.15"></circle><circle r="13.5" cx="1194" cy="23" fill="hsl(198, 34%, 86%)" opacity="0.22"></circle><circle r="9" cx="542" cy="27" fill="hsl(50, 34%, 86%)" opacity="0.41"></circle><circle r="11.5" cx="1002" cy="45" fill="hsl(145, 34%, 86%)" opacity="0.42"></circle><circle r="12.5" cx="171" cy="320" fill="hsl(233, 34%, 86%)" opacity="0.87"></circle><circle r="11" cx="960" cy="136" fill="hsl(118, 34%, 86%)" opacity="0.65"></circle><circle r="12.5" cx="329" cy="283" fill="hsl(213, 34%, 86%)" opacity="0.72"></circle><circle r="28" cx="290" cy="700" fill="hsl(216, 34%, 86%)" opacity="0.66"></circle><circle r="18" cx="103" cy="209" fill="hsl(243, 34%, 86%)" opacity="0.46"></circle><circle r="12.5" cx="877" cy="60" fill="hsl(95, 34%, 86%)" opacity="0.15"></circle><circle r="7" cx="1076" cy="644" fill="hsl(127, 34%, 86%)" opacity="0.44"></circle><circle r="10" cx="1046" cy="507" fill="hsl(123, 34%, 86%)" opacity="0.75"></circle><circle r="16" cx="1369" cy="436" fill="hsl(253, 34%, 86%)" opacity="0.41"></circle><circle r="12.5" cx="1007" cy="705" fill="hsl(119, 34%, 86%)" opacity="0.51"></circle><circle r="13" cx="943" cy="453" fill="hsl(118, 34%, 86%)" opacity="0.86"></circle><circle r="15" cx="235" cy="423" fill="hsl(224, 34%, 86%)" opacity="0.53"></circle><circle r="10" cx="508" cy="291" fill="hsl(180, 34%, 86%)" opacity="0.74"></circle><circle r="11.5" cx="292" cy="23" fill="hsl(151, 34%, 86%)" opacity="0.52"></circle><circle r="11.5" cx="1196" cy="165" fill="hsl(168, 34%, 86%)" opacity="0.82"></circle><circle r="19.5" cx="327" cy="602" fill="hsl(213, 34%, 86%)" opacity="0.31"></circle><circle r="17.5" cx="55" cy="147" fill="hsl(233, 34%, 86%)" opacity="0.81"></circle><circle r="16" cx="516" cy="509" fill="hsl(175, 34%, 86%)" opacity="0.29"></circle><circle r="12.5" cx="763" cy="702" fill="hsl(128, 34%, 86%)" opacity="0.97"></circle><circle r="16.5" cx="31" cy="767" fill="hsl(248, 34%, 86%)" opacity="0.78"></circle><circle r="14" cx="1157" cy="53" fill="hsl(188, 34%, 86%)" opacity="0.56"></circle><circle r="13" cx="1403" cy="344" fill="hsl(274, 34%, 86%)" opacity="0.77"></circle><circle r="14.5" cx="1151" cy="201" fill="hsl(143, 34%, 86%)" opacity="0.93"></circle><circle r="10.5" cx="290" cy="206" fill="hsl(216, 34%, 86%)" opacity="0.65"></circle><circle r="15.5" cx="95" cy="89" fill="hsl(208, 34%, 86%)" opacity="0.53"></circle><circle r="23.5" cx="1316" cy="186" fill="hsl(229, 34%, 86%)" opacity="0.79"></circle><circle r="10.5" cx="1210" cy="211" fill="hsl(170, 34%, 86%)" opacity="0.36"></circle><circle r="9" cx="469" cy="652" fill="hsl(185, 34%, 86%)" opacity="0.27"></circle><circle r="12.5" cx="474" cy="730" fill="hsl(185, 34%, 86%)" opacity="0.83"></circle><circle r="11.5" cx="968" cy="668" fill="hsl(118, 34%, 86%)" opacity="0.65"></circle><circle r="13.5" cx="1205" cy="696" fill="hsl(170, 34%, 86%)" opacity="0.66"></circle><circle r="16" cx="92" cy="262" fill="hsl(243, 34%, 86%)" opacity="0.33"></circle><circle r="14.5" cx="1113" cy="249" fill="hsl(137, 34%, 86%)" opacity="0.83"></circle><circle r="15.5" cx="1116" cy="584" fill="hsl(137, 34%, 86%)" opacity="0.89"></circle><circle r="16" cx="579" cy="388" fill="hsl(158, 34%, 86%)" opacity="0.40"></circle><circle r="19" cx="203" cy="496" fill="hsl(227, 34%, 86%)" opacity="0.46"></circle><circle r="15" cx="276" cy="775" fill="hsl(218, 34%, 86%)" opacity="0.95"></circle><circle r="7" cx="138" cy="14" fill="hsl(155, 34%, 86%)" opacity="0.62"></circle><circle r="7" cx="811" cy="36" fill="hsl(67, 34%, 86%)" opacity="0.55"></circle><circle r="22.5" cx="134" cy="512" fill="hsl(237, 34%, 86%)" opacity="0.99"></circle><circle r="11.5" cx="1082" cy="27" fill="hsl(171, 34%, 86%)" opacity="0.25"></circle><circle r="9.5" cx="580" cy="603" fill="hsl(158, 34%, 86%)" opacity="0.59"></circle><circle r="17.5" cx="1357" cy="366" fill="hsl(253, 34%, 86%)" opacity="0.87"></circle><circle r="14.5" cx="449" cy="470" fill="hsl(190, 34%, 86%)" opacity="0.59"></circle><circle r="10.5" cx="1016" cy="269" fill="hsl(119, 34%, 86%)" opacity="0.65"></circle><circle r="8" cx="545" cy="649" fill="hsl(169, 34%, 86%)" opacity="0.99"></circle><circle r="20.5" cx="1392" cy="51" fill="hsl(268, 34%, 86%)" opacity="0.54"></circle><circle r="11.5" cx="583" cy="222" fill="hsl(158, 34%, 86%)" opacity="0.61"></circle><circle r="10.5" cx="1143" cy="715" fill="hsl(143, 34%, 86%)" opacity="0.76"></circle><circle r="14" cx="141" cy="284" fill="hsl(237, 34%, 86%)" opacity="0.77"></circle><circle r="19" cx="110" cy="148" fill="hsl(229, 34%, 86%)" opacity="0.55"></circle><circle r="11.5" cx="988" cy="517" fill="hsl(118, 34%, 86%)" opacity="0.49"></circle><circle r="14.5" cx="22" cy="85" fill="hsl(199, 34%, 86%)" opacity="0.70"></circle><circle r="9" cx="499" cy="257" fill="hsl(180, 34%, 86%)" opacity="0.71"></circle><circle r="11.5" cx="420" cy="71" fill="hsl(134, 34%, 86%)" opacity="0.57"></circle><circle r="15.5" cx="375" cy="341" fill="hsl(207, 34%, 86%)" opacity="0.87"></circle><circle r="10" cx="549" cy="698" fill="hsl(169, 34%, 86%)" opacity="0.38"></circle><circle r="13" cx="921" cy="618" fill="hsl(118, 34%, 86%)" opacity="0.40"></circle><circle r="9.5" cx="547" cy="262" fill="hsl(169, 34%, 86%)" opacity="0.39"></circle><circle r="14.5" cx="963" cy="761" fill="hsl(118, 34%, 86%)" opacity="0.97"></circle><circle r="12.5" cx="1305" cy="64" fill="hsl(234, 34%, 86%)" opacity="0.60"></circle><circle r="10" cx="187" cy="27" fill="hsl(166, 34%, 86%)" opacity="0.89"></circle><circle r="11.5" cx="557" cy="150" fill="hsl(124, 34%, 86%)" opacity="0.76"></circle><circle r="11" cx="711" cy="729" fill="hsl(133, 34%, 86%)" opacity="0.64"></circle><circle r="16" cx="342" cy="474" fill="hsl(210, 34%, 86%)" opacity="0.22"></circle><circle r="12.5" cx="1119" cy="397" fill="hsl(137, 34%, 86%)" opacity="0.24"></circle><circle r="13" cx="615" cy="521" fill="hsl(153, 34%, 86%)" opacity="0.53"></circle><circle r="14" cx="796" cy="473" fill="hsl(126, 34%, 86%)" opacity="0.67"></circle><circle r="9" cx="1043" cy="24" fill="hsl(159, 34%, 86%)" opacity="0.45"></circle><circle r="19.5" cx="219" cy="619" fill="hsl(227, 34%, 86%)" opacity="0.46"></circle><circle r="12.5" cx="801" cy="410" fill="hsl(124, 34%, 86%)" opacity="0.52"></circle><circle r="9" cx="12" cy="648" fill="hsl(249, 34%, 86%)" opacity="0.29"></circle><circle r="16.5" cx="669" cy="408" fill="hsl(140, 34%, 86%)" opacity="0.49"></circle><circle r="7.5" cx="637" cy="691" fill="hsl(148, 34%, 86%)" opacity="0.80"></circle><circle r="10.5" cx="960" cy="80" fill="hsl(126, 34%, 86%)" opacity="0.56"></circle><circle r="10" cx="772" cy="264" fill="hsl(128, 34%, 86%)" opacity="0.98"></circle><circle r="16.5" cx="205" cy="123" fill="hsl(206, 34%, 86%)" opacity="0.89"></circle><circle r="15.5" cx="132" cy="355" fill="hsl(240, 34%, 86%)" opacity="0.61"></circle><circle r="9.5" cx="633" cy="593" fill="hsl(148, 34%, 86%)" opacity="0.65"></circle><circle r="12" cx="447" cy="621" fill="hsl(190, 34%, 86%)" opacity="0.61"></circle><circle r="11" cx="755" cy="635" fill="hsl(130, 34%, 86%)" opacity="0.43"></circle><circle r="11.5" cx="733" cy="297" fill="hsl(133, 34%, 86%)" opacity="0.25"></circle><circle r="12.5" cx="415" cy="521" fill="hsl(199, 34%, 86%)" opacity="0.55"></circle><circle r="12" cx="485" cy="384" fill="hsl(185, 34%, 86%)" opacity="0.55"></circle><circle r="19.5" cx="146" cy="633" fill="hsl(237, 34%, 86%)" opacity="0.65"></circle><circle r="15" cx="1319" cy="776" fill="hsl(229, 34%, 86%)" opacity="0.19"></circle><circle r="16.5" cx="1135" cy="492" fill="hsl(143, 34%, 86%)" opacity="0.21"></circle></svg>