<svg xmlns="http://www.w3.org/2000/svg" version="1.1" xmlns:xlink="http://www.w3.org/1999/xlink" xmlns:svgjs="http://svgjs.dev/svgjs" viewBox="0 0 1422 800"><g fill="none" stroke-width="3" stroke="hsl(190, 100%, 70%)" stroke-linecap="round"><line x1="1043" y1="400" x2="379" y2="400" transform="rotate(0, 711, 400)" opacity="0.15"></line><line x1="787" y1="400" x2="635" y2="400" transform="rotate(4, 711, 400)" opacity="0.14"></line><line x1="1358.5" y1="400" x2="63.5" y2="400" transform="rotate(8, 711, 400)" opacity="0.30"></line><line x1="699.5" y1="400" x2="722.5" y2="400" transform="rotate(12, 711, 400)" opacity="0.20"></line><line x1="1265" y1="400" x2="157" y2="400" transform="rotate(16, 711, 400)" opacity="0.77"></line><line x1="1046" y1="400" x2="376" y2="400" transform="rotate(20, 711, 400)" opacity="0.34"></line><line x1="1275" y1="400" x2="147" y2="400" transform="rotate(24, 711, 400)" opacity="0.08"></line><line x1="1090" y1="400" x2="332" y2="400" transform="rotate(28, 711, 400)" opacity="0.26"></line><line x1="979.5" y1="400" x2="442.5" y2="400" transform="rotate(32, 711, 400)" opacity="0.46"></line><line x1="1350.5" y1="400" x2="71.5" y2="400" transform="rotate(36, 711, 400)" opacity="0.57"></line><line x1="843.5" y1="400" x2="578.5" y2="400" transform="rotate(40, 711, 400)" opacity="0.39"></line><line x1="1042" y1="400" x2="380" y2="400" transform="rotate(44, 711, 400)" opacity="0.59"></line><line x1="847.5" y1="400" x2="574.5" y2="400" transform="rotate(48, 711, 400)" opacity="0.37"></line><line x1="659" y1="400" x2="763" y2="400" transform="rotate(52, 711, 400)" opacity="0.84"></line><line x1="756" y1="400" x2="666" y2="400" transform="rotate(56, 711, 400)" opacity="0.57"></line><line x1="1211" y1="400" x2="211" y2="400" transform="rotate(60, 711, 400)" opacity="0.47"></line><line x1="972" y1="400" x2="450" y2="400" transform="rotate(64, 711, 400)" opacity="0.42"></line><line x1="1079" y1="400" x2="343" y2="400" transform="rotate(68, 711, 400)" opacity="0.19"></line><line x1="1153" y1="400" x2="269" y2="400" transform="rotate(72, 711, 400)" opacity="0.55"></line><line x1="1334.5" y1="400" x2="87.5" y2="400" transform="rotate(76, 711, 400)" opacity="0.81"></line><line x1="716" y1="400" x2="706" y2="400" transform="rotate(80, 711, 400)" opacity="0.34"></line><line x1="992.5" y1="400" x2="429.5" y2="400" transform="rotate(84, 711, 400)" opacity="0.97"></line><line x1="953.5" y1="400" x2="468.5" y2="400" transform="rotate(88, 711, 400)" opacity="0.64"></line><line x1="1230.5" y1="400" x2="191.5" y2="400" transform="rotate(92, 711, 400)" opacity="0.53"></line><line x1="794.5" y1="400" x2="627.5" y2="400" transform="rotate(96, 711, 400)" opacity="0.30"></line><line x1="1327.5" y1="400" x2="94.5" y2="400" transform="rotate(100, 711, 400)" opacity="0.34"></line><line x1="765.5" y1="400" x2="656.5" y2="400" transform="rotate(104, 711, 400)" opacity="0.19"></line><line x1="860.5" y1="400" x2="561.5" y2="400" transform="rotate(108, 711, 400)" opacity="0.88"></line><line x1="681.5" y1="400" x2="740.5" y2="400" transform="rotate(112, 711, 400)" opacity="0.58"></line><line x1="1073" y1="400" x2="349" y2="400" transform="rotate(116, 711, 400)" opacity="0.33"></line><line x1="916" y1="400" x2="506" y2="400" transform="rotate(120, 711, 400)" opacity="0.17"></line><line x1="1152" y1="400" x2="270" y2="400" transform="rotate(124, 711, 400)" opacity="0.45"></line><line x1="1069.5" y1="400" x2="352.5" y2="400" transform="rotate(128, 711, 400)" opacity="0.67"></line><line x1="1152" y1="400" x2="270" y2="400" transform="rotate(132, 711, 400)" opacity="0.23"></line><line x1="981.5" y1="400" x2="440.5" y2="400" transform="rotate(136, 711, 400)" opacity="0.26"></line><line x1="719.5" y1="400" x2="702.5" y2="400" transform="rotate(140, 711, 400)" opacity="0.21"></line><line x1="933" y1="400" x2="489" y2="400" transform="rotate(144, 711, 400)" opacity="0.09"></line><line x1="1160.5" y1="400" x2="261.5" y2="400" transform="rotate(148, 711, 400)" opacity="0.67"></line><line x1="1042" y1="400" x2="380" y2="400" transform="rotate(152, 711, 400)" opacity="0.28"></line><line x1="880" y1="400" x2="542" y2="400" transform="rotate(156, 711, 400)" opacity="0.14"></line><line x1="1350.5" y1="400" x2="71.5" y2="400" transform="rotate(160, 711, 400)" opacity="0.93"></line><line x1="724.5" y1="400" x2="697.5" y2="400" transform="rotate(164, 711, 400)" opacity="0.19"></line><line x1="781" y1="400" x2="641" y2="400" transform="rotate(168, 711, 400)" opacity="0.11"></line><line x1="818.5" y1="400" x2="603.5" y2="400" transform="rotate(172, 711, 400)" opacity="0.70"></line><line x1="671" y1="400" x2="751" y2="400" transform="rotate(176, 711, 400)" opacity="0.97"></line><line x1="1052" y1="400" x2="370" y2="400" transform="rotate(180, 711, 400)" opacity="0.44"></line><line x1="1105" y1="400" x2="317" y2="400" transform="rotate(184, 711, 400)" opacity="0.84"></line><line x1="771" y1="400" x2="651" y2="400" transform="rotate(188, 711, 400)" opacity="0.83"></line><line x1="1261.5" y1="400" x2="160.5" y2="400" transform="rotate(192, 711, 400)" opacity="0.48"></line><line x1="1046.5" y1="400" x2="375.5" y2="400" transform="rotate(196, 711, 400)" opacity="0.40"></line><line x1="815" y1="400" x2="607" y2="400" transform="rotate(200, 711, 400)" opacity="0.26"></line><line x1="1082.5" y1="400" x2="339.5" y2="400" transform="rotate(204, 711, 400)" opacity="0.97"></line><line x1="1286.5" y1="400" x2="135.5" y2="400" transform="rotate(208, 711, 400)" opacity="0.15"></line><line x1="1053.5" y1="400" x2="368.5" y2="400" transform="rotate(212, 711, 400)" opacity="0.62"></line><line x1="1219" y1="400" x2="203" y2="400" transform="rotate(216, 711, 400)" opacity="0.64"></line><line x1="906" y1="400" x2="516" y2="400" transform="rotate(220, 711, 400)" opacity="0.14"></line><line x1="1320" y1="400" x2="102" y2="400" transform="rotate(224, 711, 400)" opacity="0.82"></line><line x1="931.5" y1="400" x2="490.5" y2="400" transform="rotate(228, 711, 400)" opacity="0.77"></line><line x1="822" y1="400" x2="600" y2="400" transform="rotate(232, 711, 400)" opacity="0.67"></line><line x1="764" y1="400" x2="658" y2="400" transform="rotate(236, 711, 400)" opacity="0.11"></line><line x1="799" y1="400" x2="623" y2="400" transform="rotate(240, 711, 400)" opacity="0.83"></line><line x1="656" y1="400" x2="766" y2="400" transform="rotate(244, 711, 400)" opacity="0.70"></line><line x1="1208.5" y1="400" x2="213.5" y2="400" transform="rotate(248, 711, 400)" opacity="0.38"></line><line x1="1352.5" y1="400" x2="69.5" y2="400" transform="rotate(252, 711, 400)" opacity="0.48"></line><line x1="1067.5" y1="400" x2="354.5" y2="400" transform="rotate(256, 711, 400)" opacity="0.49"></line><line x1="733" y1="400" x2="689" y2="400" transform="rotate(260, 711, 400)" opacity="0.92"></line><line x1="716.5" y1="400" x2="705.5" y2="400" transform="rotate(264, 711, 400)" opacity="0.23"></line><line x1="950" y1="400" x2="472" y2="400" transform="rotate(268, 711, 400)" opacity="0.27"></line><line x1="802.5" y1="400" x2="619.5" y2="400" transform="rotate(272, 711, 400)" opacity="0.34"></line><line x1="721.5" y1="400" x2="700.5" y2="400" transform="rotate(276, 711, 400)" opacity="0.34"></line><line x1="1018.5" y1="400" x2="403.5" y2="400" transform="rotate(280, 711, 400)" opacity="0.95"></line><line x1="855.5" y1="400" x2="566.5" y2="400" transform="rotate(284, 711, 400)" opacity="0.20"></line><line x1="1210.5" y1="400" x2="211.5" y2="400" transform="rotate(288, 711, 400)" opacity="0.11"></line><line x1="1005.5" y1="400" x2="416.5" y2="400" transform="rotate(292, 711, 400)" opacity="0.21"></line><line x1="1113" y1="400" x2="309" y2="400" transform="rotate(296, 711, 400)" opacity="0.70"></line><line x1="767" y1="400" x2="655" y2="400" transform="rotate(300, 711, 400)" opacity="0.41"></line><line x1="812.5" y1="400" x2="609.5" y2="400" transform="rotate(304, 711, 400)" opacity="0.54"></line><line x1="851" y1="400" x2="571" y2="400" transform="rotate(308, 711, 400)" opacity="0.27"></line><line x1="792" y1="400" x2="630" y2="400" transform="rotate(312, 711, 400)" opacity="0.17"></line><line x1="929.5" y1="400" x2="492.5" y2="400" transform="rotate(316, 711, 400)" opacity="0.37"></line><line x1="1267.5" y1="400" x2="154.5" y2="400" transform="rotate(320, 711, 400)" opacity="0.15"></line><line x1="1329" y1="400" x2="93" y2="400" transform="rotate(324, 711, 400)" opacity="0.20"></line><line x1="1246" y1="400" x2="176" y2="400" transform="rotate(328, 711, 400)" opacity="0.97"></line><line x1="657.5" y1="400" x2="764.5" y2="400" transform="rotate(332, 711, 400)" opacity="0.98"></line><line x1="808" y1="400" x2="614" y2="400" transform="rotate(336, 711, 400)" opacity="0.12"></line><line x1="730.5" y1="400" x2="691.5" y2="400" transform="rotate(340, 711, 400)" opacity="0.78"></line><line x1="1108.5" y1="400" x2="313.5" y2="400" transform="rotate(344, 711, 400)" opacity="0.18"></line><line x1="813.5" y1="400" x2="608.5" y2="400" transform="rotate(348, 711, 400)" opacity="0.64"></line></g></svg>